<svg xmlns="http://www.w3.org/2000/svg" viewBox="0 0 535.89 408.42"><defs><style>.cls-1{fill:#fdc902;}.cls-2{fill:#fda213;}.cls-3{fill:#fd7d25;}</style></defs><title>meteor</title><g id="Layer_2" data-name="Layer 2"><g id="Layer_1-2" data-name="Layer 1"><path class="cls-1" d="M0,253c2.6-52.57,27.29-96.81,77.24-125.83Q183.05,65.72,289.16,4.77c4.35-2.52,8.66-5,13.95-4.75A19.14,19.14,0,0,1,320.67,14a18.7,18.7,0,0,1-8.76,21C293.65,45.66,275.25,56.08,257,66.79c-13,7.66-13.47,24.82-.87,32.47,6.72,4.08,13.57,3.38,20.34-.55q46-26.68,92.11-53.23c13.13-7.59,26.9-6.58,36.37,2.79a28.09,28.09,0,0,1-5.29,44.26c-13.39,8.1-27.11,15.65-40.58,23.62-9.05,5.37-12.18,15.72-7.74,24.55,5,10,16.79,13.32,26.85,7.51q57.32-33.06,114.63-66.14c18-10.32,38.75-.68,42.61,19.58,2.11,11.14-3.4,22.7-14.24,29q-36.25,21.12-72.66,42c-15.72,9.07-31.48,18.07-47.18,27.17-10.09,5.86-14,14.47-10.92,23.64A18.77,18.77,0,0,0,417.4,233.8c5.85-3.19,11.44-6.86,17.39-9.84a18.44,18.44,0,0,1,23.28,5.29,18.82,18.82,0,0,1-.8,23.95c-1.88,2.24-4.37,3.58-6.82,5q-59.46,34.35-119,68.66c-36.34,21-72.35,42.52-109.08,62.8C133,439,21.82,386.33,2.8,286,1,276.61.23,267.18,0,253ZM152.09,116.88c8.69-5.21,16.14-9.79,23.7-14.19,10.62-6.19,21.31-12.24,32-18.34C223,75.62,238.32,67,253.53,58.18c10.33-6,20.61-12,30.78-18.29,4.66-2.85,5.4-6.48,3.93-11-2.05-6.25-9.92-7.43-14.85-4.31-7.84,4.95-15.89,9.59-23.94,14.2-16.27,9.32-32.63,18.49-48.91,27.8-14.68,8.38-29.42,16.65-43.9,25.36q-17.71,10.63-35.83,20.54c-10.63,5.8-20.92,12.22-31.36,18.37C75,139.34,60.83,148.09,49.1,160.38a142.77,142.77,0,0,0-35.84,65.87,135,135,0,0,0-1.79,55.4,137.67,137.67,0,0,0,25.79,60.17c13.06,17.4,28.79,31.26,47.86,41.18,26.51,13.79,54.86,18.24,84.49,14.56,24.3-3,46.09-12.65,65.51-27a131.89,131.89,0,0,0,36.13-40.61,150,150,0,0,0,16.41-40.37A137.24,137.24,0,0,0,290.94,252c-.16-3.49,1.21-5.43,4.21-7.09,7.67-4.24,15.14-8.86,22.73-13.25,16.83-9.73,33.74-19.29,50.51-29.12,28.29-16.6,56.94-32.6,85.4-48.93,4.27-2.45,7.78-5.69,8.23-11.11.46-5.69-.86-10.65-6-13.87-5.34-3.37-10.95-2.83-16.14.08-12.43,7-24.72,14.15-37,21.36-14.16,8.31-28,17.2-42.43,25-13.86,7.47-27.25,15.7-40.93,23.45-10.51,5.95-21.11,11.74-31.56,17.81-2.67,1.55-3.31.76-4.05-1.79a123.74,123.74,0,0,0-16-33.44,138.7,138.7,0,0,0-38.53-39,141.81,141.81,0,0,0-44-20C174.91,119.37,164.2,118.8,152.09,116.88Z"/><path class="cls-1" d="M448.81,59.78a27.77,27.77,0,0,1-28-28.25,28.12,28.12,0,1,1,28,28.25Zm9.2-27.9c-.06-5.75-3.72-9.44-9.22-9.32-5.83.12-8.81,3.17-8.81,9,0,5.6,3.91,9.76,9.11,9.67A9,9,0,0,0,458,31.88Z"/><path class="cls-1" d="M473.11,212.44a19.12,19.12,0,0,1,18.78-18.78,19.32,19.32,0,0,1,18.94,18.74c.13,10-8.57,18.89-18.63,19A19,19,0,0,1,473.11,212.44Z"/><path class="cls-2" d="M152.09,116.88c12.11,1.92,22.82,2.49,33.26,5.2a141.81,141.81,0,0,1,44,20,138.7,138.7,0,0,1,38.53,39,123.74,123.74,0,0,1,16,33.44c.74,2.55,1.38,3.34,4.05,1.79,10.45-6.07,21.05-11.86,31.56-17.81,13.68-7.75,27.07-16,40.93-23.45,14.44-7.78,28.27-16.67,42.43-25,12.28-7.21,24.57-14.41,37-21.36,5.19-2.91,10.8-3.45,16.14-.08,5.1,3.22,6.42,8.18,6,13.87-.45,5.42-4,8.66-8.23,11.11-28.46,16.33-57.11,32.33-85.4,48.93-16.77,9.83-33.68,19.39-50.51,29.12-7.59,4.39-15.06,9-22.73,13.25-3,1.66-4.37,3.6-4.21,7.09a137.24,137.24,0,0,1-3.28,37.57,150,150,0,0,1-16.41,40.37,131.89,131.89,0,0,1-36.13,40.61c-19.42,14.37-41.21,24-65.51,27-29.63,3.68-58-.77-84.49-14.56-19.07-9.92-34.8-23.78-47.86-41.18a137.67,137.67,0,0,1-25.79-60.17,135,135,0,0,1,1.79-55.4A142.77,142.77,0,0,1,49.1,160.38c11.73-12.29,25.92-21,40.35-29.54,10.44-6.15,20.73-12.57,31.36-18.37q18.15-9.89,35.83-20.54c14.48-8.71,29.22-17,43.9-25.36,16.28-9.31,32.64-18.48,48.91-27.8,8.05-4.61,16.1-9.25,23.94-14.2,4.93-3.12,12.8-1.94,14.85,4.31,1.47,4.53.73,8.16-3.93,11-10.17,6.25-20.45,12.31-30.78,18.29C238.32,67,223,75.62,207.77,84.35c-10.67,6.1-21.36,12.15-32,18.34C168.23,107.09,160.78,111.67,152.09,116.88Zm-3.37,272.68c75.13,0,132.13-57.65,132.87-129.74.76-74.09-56.34-132.89-132-132.91C77.32,126.9,20.31,184.7,19,256,17.67,330.79,78.23,388.89,148.72,389.56Z"/><path class="cls-2" d="M458,31.88a9,9,0,0,1-8.92,9.37c-5.2.09-9.11-4.07-9.11-9.67,0-5.85,3-8.9,8.81-9C454.29,22.44,458,26.13,458,31.88Z"/><path class="cls-3" d="M148.72,389.56C78.23,388.89,17.67,330.79,19,256c1.29-71.28,58.3-129.08,130.53-129.07,75.7,0,132.8,58.82,132,132.91C280.85,331.91,223.85,389.55,148.72,389.56ZM33,258.93c.21,11.26,2.1,21.58,7.49,30.83,8.7,14.95,17.94,29.59,26.76,44.48a32.61,32.61,0,0,0,20,15.43c22.41,6.31,44.84,12.56,67.15,19.2,13.09,3.9,24.16,1.35,33.88-8.24,19.09-18.82,38.32-37.49,57.48-56.24,22.18-21.71,25.48-52.45,8.29-78.23-11.63-17.44-23.62-34.66-35-52.25-8.69-13.41-20.77-19.43-36.52-19.28q-32.73.3-65.47.06A26.54,26.54,0,0,0,95.89,164q-22.26,25-44.76,49.73A68,68,0,0,0,33,258.93Z"/></g></g></svg>