<svg xmlns="http://www.w3.org/2000/svg" viewBox="0 0 330.72 189"><defs><style>.cls-1{fill:#999;}.cls-2{fill:#4d4d4d;}.cls-3{fill:#e6e6e6;}</style></defs><title>Asset 19</title><g id="Layer_2" data-name="Layer 2"><g id="Layer_1-2" data-name="Layer 1"><path class="cls-1" d="M321,3a185.61,185.61,0,0,1-9.27,58.13A186,186,0,0,1,135,189a187.79,187.79,0,0,1-30.29-2.45,184.94,184.94,0,0,1-70.4-27.14A186.68,186.68,0,0,1,1.2,132.16c-.41-.42-.81-.84-1.2-1.27V0H321Q321,1.52,321,3Z"/><path class="cls-2" d="M330.72,0c-.18,1.23-.37,2.46-.58,3.68-.14.87-.29,1.74-.45,2.6a207.62,207.62,0,0,1-18,54.88,210.52,210.52,0,0,1-132,110.08A210,210,0,0,1,123,179a209.09,209.09,0,0,1-88.66-19.59A207.48,207.48,0,0,1,10.2,146.16Q5,142.83,0,139.22V0Z"/><path class="cls-3" d="M37,68.5A30.5,30.5,0,0,1,0,98.3V38.7A30.5,30.5,0,0,1,37,68.5Z"/><circle class="cls-3" cx="85" cy="128" r="17"/><circle class="cls-3" cx="182.5" cy="68.5" r="45.5"/><path class="cls-3" d="M305,0A30.5,30.5,0,0,1,274.5,30,30.5,30.5,0,0,1,244,0Z"/></g></g></svg>